<?xml version="1.0" encoding="UTF-8"?>
<svg id="Capa_2" data-name="Capa 2" xmlns="http://www.w3.org/2000/svg" xmlns:xlink="http://www.w3.org/1999/xlink" viewBox="0 0 289.61 121.49">
  <defs>
    <style>
      .cls-1 {
        fill: url(#linear-gradient-5);
      }

      .cls-2 {
        fill: url(#linear-gradient-6);
      }

      .cls-3 {
        fill: url(#linear-gradient-4);
      }

      .cls-4 {
        fill: url(#linear-gradient-3);
      }

      .cls-5 {
        fill: url(#linear-gradient-2);
      }

      .cls-6 {
        fill: url(#linear-gradient);
      }

      .cls-7 {
        fill: #fff;
      }
    </style>
    <linearGradient id="linear-gradient" x1="76.46" y1="71.83" x2="30.88" y2="26.26" gradientUnits="userSpaceOnUse">
      <stop offset="0" stop-color="#00807f"/>
      <stop offset="0" stop-color="#00807f"/>
      <stop offset=".42" stop-color="#209e9d"/>
      <stop offset=".76" stop-color="#33b1af"/>
      <stop offset="1" stop-color="#3bb8b6"/>
    </linearGradient>
    <linearGradient id="linear-gradient-2" x1="76.85" y1="68.38" x2="52.41" y2="92.82" gradientUnits="userSpaceOnUse">
      <stop offset="0" stop-color="#bce1e2"/>
      <stop offset=".13" stop-color="#9cd5d6"/>
      <stop offset=".29" stop-color="#7cc9ca"/>
      <stop offset=".42" stop-color="#69c2c2"/>
      <stop offset=".52" stop-color="#62c0c0"/>
    </linearGradient>
    <linearGradient id="linear-gradient-3" x1="11.63" y1="64.43" x2="33.5" y2="42.56" gradientUnits="userSpaceOnUse">
      <stop offset="0" stop-color="#00579b"/>
      <stop offset="1" stop-color="#0091d8"/>
    </linearGradient>
    <linearGradient id="linear-gradient-4" x1="-.48" y1="61.71" x2="42.03" y2="104.22" gradientUnits="userSpaceOnUse">
      <stop offset="0" stop-color="#a4dbf8"/>
      <stop offset="0" stop-color="#a0d9f7"/>
      <stop offset=".14" stop-color="#67c1ee"/>
      <stop offset=".26" stop-color="#3aafe6"/>
      <stop offset=".37" stop-color="#1aa2e1"/>
      <stop offset=".46" stop-color="#0799de"/>
      <stop offset=".52" stop-color="#0097dd"/>
    </linearGradient>
    <linearGradient id="linear-gradient-5" x1="79.9" y1="30.04" x2="34.48" y2="75.46" gradientUnits="userSpaceOnUse">
      <stop offset="0" stop-color="#ffdb70"/>
      <stop offset=".02" stop-color="#fed76d"/>
      <stop offset=".23" stop-color="#f9b758"/>
      <stop offset=".4" stop-color="#f6a44b"/>
      <stop offset=".52" stop-color="#f59d47"/>
    </linearGradient>
    <linearGradient id="linear-gradient-6" x1="71.1" y1="32.78" x2="58.54" y2="20.22" gradientUnits="userSpaceOnUse">
      <stop offset="0" stop-color="#df5019"/>
      <stop offset=".38" stop-color="#e87035"/>
      <stop offset=".77" stop-color="#f08b4d"/>
      <stop offset="1" stop-color="#f39657"/>
    </linearGradient>
  </defs>
  <g id="Capa_1-2" data-name="Capa 1">
    <g>
      <g>
        <path class="cls-6" d="M72.36,58.97L23.96,10.57l4.28-4.28h-14.47v14.47l4.11-4.11,49.31,49.31c6.32,6.32,1.1,12.64-.04,13.88,0,0,4.51-4.06,6.02-9.08,1.33-4.41,1.18-9.8-.81-11.79Z"/>
        <path class="cls-5" d="M73.26,59.87l-.91-.91c1.99,1.99,2.14,7.38.81,11.79-1.52,5.02-6.02,9.08-6.02,9.08l-14.06,14.06,6.08,6.08,14.1-14.1.06-.07c.32-.33,3.16-3.39,4.64-7.95,2.1-6.46.42-12.85-4.71-17.98Z"/>
        <path class="cls-4" d="M19.26,72.27c-1.25-1.25-1.96-2.43-1.95-3.24.02-1.01.98-2.27,1.49-2.78l.09-.06,19.13-19.13-12.24-12.24-15.28,15.28c-5.71,9.23,8.76,22.18,8.76,22.18Z"/>
        <path class="cls-3" d="M42.42,93.84c-.51,0-1.01.03-1.5.08l-21.66-21.66s-14.46-12.95-8.76-22.18l-3.34,3.34c-1.55,1.43-6.84,6.88-7.15,14.88-.16,4.04.93,10.12,7,16.2l21.66,21.66c-.05.49-.08.99-.08,1.5,0,7.64,6.19,13.83,13.83,13.83s13.83-6.19,13.83-13.83-6.19-13.83-13.83-13.83ZM42.42,115.73c-4.45,0-8.06-3.62-8.06-8.06s3.62-8.06,8.06-8.06,8.06,3.62,8.06,8.06-3.62,8.06-8.06,8.06Z"/>
        <path class="cls-1" d="M76.48,25.96l-4.96-4.96c3.53,6.66-7,17.33-7,17.33-.09.17-.21.35-.32.49l-33.68,33.68,12.16,12.16,33.8-33.8c6.04-6.04,8.09-16.82,0-24.9Z"/>
        <path class="cls-2" d="M72.51,21.99L53.93,3.41l3.41-3.41h-19.03v19.03l3.45-3.45,22.55,22.55c.08.08.15.15.2.21,0,0,9.09-7.63,7.99-16.35Z"/>
      </g>
      <g>
        <path class="cls-7" d="M94.82,74.2V24.26h19.56c16.53,0,24.8,7.87,24.8,23.61,0,17.56-8.27,26.33-24.8,26.33h-19.56ZM114.38,66.17c10.36,0,15.54-6.1,15.54-18.3,0-10.39-5.18-15.58-15.54-15.58h-10.3v33.88h10.3Z"/>
        <path class="cls-7" d="M140.85,24.26h9.96l14.04,24.06,13.2-24.06h9.61l-18.37,32.48v17.46h-9.26v-17.46l-19.17-32.48Z"/>
        <path class="cls-7" d="M202.71,24.26v41.91h25.59v8.03h-34.85V24.26h9.26Z"/>
        <path class="cls-7" d="M230.05,49.3c0-16.93,8.36-25.39,25.08-25.39s24.69,8.46,24.69,25.39-8.23,25.25-24.69,25.25-24.33-8.42-25.08-25.25ZM255.13,66.52c10.06,0,15.09-5.81,15.09-17.43s-5.03-17.15-15.09-17.15-15.47,5.72-15.47,17.15,5.16,17.43,15.47,17.43Z"/>
        <path class="cls-7" d="M104.81,90.7c0,1.13-.14,2.11-.43,2.95-.29.84-.71,1.54-1.26,2.09-.55.55-1.23.97-2.04,1.24-.8.27-1.76.41-2.87.41h-2.75c-.16,0-.3-.05-.44-.16-.14-.1-.21-.29-.21-.55v-11.6c0-.26.07-.44.21-.55.14-.1.28-.16.44-.16h2.94c1.13,0,2.08.15,2.85.44.78.29,1.43.71,1.95,1.26.53.55.93,1.21,1.2,1.98.27.78.41,1.66.41,2.63ZM103,90.77c0-.7-.09-1.36-.26-1.96-.17-.61-.45-1.13-.82-1.57-.37-.44-.84-.79-1.41-1.03-.57-.25-1.3-.37-2.2-.37h-1.76v10.12h1.78c.83,0,1.53-.1,2.1-.31.57-.21,1.04-.53,1.42-.95.38-.43.67-.97.86-1.61.19-.65.29-1.41.29-2.3Z"/>
        <path class="cls-7" d="M112.25,92.34v4.79c0,.05-.01.1-.04.14-.03.04-.07.07-.14.1-.07.02-.16.04-.27.06-.11.02-.25.02-.41.02s-.3,0-.42-.02c-.11-.02-.2-.04-.27-.06-.07-.02-.12-.06-.14-.1-.03-.04-.04-.09-.04-.14v-4.79l-3.68-7.34c-.07-.15-.12-.27-.14-.36-.02-.09,0-.15.05-.2.05-.05.14-.08.27-.09.13-.01.31-.02.53-.02.2,0,.36,0,.49.02s.22.03.3.06c.07.02.13.06.17.1.04.04.07.1.11.17l1.8,3.74c.17.35.34.73.5,1.12.16.39.34.78.51,1.18h.02c.16-.38.31-.76.47-1.14.16-.38.33-.75.5-1.12l1.81-3.76c.02-.07.05-.12.09-.17.04-.05.09-.08.15-.11.06-.02.15-.04.27-.06.11-.01.26-.02.43-.02.24,0,.43,0,.57.02.14.02.23.05.28.09.05.05.07.11.06.2-.02.09-.06.2-.14.35l-3.68,7.34Z"/>
        <path class="cls-7" d="M129,96.68c0,.13-.02.25-.07.34-.04.09-.11.17-.18.23-.07.06-.15.1-.24.13-.09.03-.18.04-.27.04h-.57c-.18,0-.34-.02-.47-.05-.14-.04-.26-.1-.39-.2-.12-.1-.24-.23-.36-.4-.12-.17-.25-.38-.39-.64l-3.97-7.4c-.21-.38-.42-.78-.63-1.2-.21-.42-.41-.82-.59-1.22h-.02c.01.48.02.97.03,1.48,0,.5.01,1,.01,1.5v7.85s-.01.09-.04.14c-.03.04-.08.08-.14.1-.07.02-.16.04-.27.06-.11.02-.25.02-.42.02s-.31,0-.42-.02c-.11-.02-.2-.04-.26-.06-.06-.02-.11-.06-.14-.1-.03-.04-.04-.09-.04-.14v-12c0-.27.08-.46.23-.57.15-.11.32-.17.5-.17h.85c.2,0,.37.02.5.05.13.03.26.09.36.16.11.08.21.18.31.32.1.14.2.31.32.52l3.05,5.71c.19.35.37.69.54,1.02.18.33.34.66.51.98.16.32.32.64.48.95.16.31.32.62.47.94h0c-.01-.53-.02-1.08-.02-1.65,0-.57,0-1.12,0-1.65v-7.05s.01-.09.04-.13c.03-.04.08-.08.14-.11.07-.03.16-.05.26-.07.11-.01.25-.02.43-.02.16,0,.29,0,.4.02.11.01.2.04.26.07.06.03.11.07.14.11s.04.08.04.13v12Z"/>
        <path class="cls-7" d="M143.22,96.78c.05.15.08.27.09.36,0,.09-.02.16-.07.2-.05.05-.14.08-.27.09-.13.01-.29.02-.5.02s-.37,0-.5-.01c-.12,0-.22-.03-.28-.05-.06-.02-.11-.05-.14-.09-.03-.04-.06-.09-.09-.15l-1.11-3.16h-5.41l-1.06,3.12c-.02.06-.05.11-.08.16-.03.04-.08.08-.15.11-.06.03-.16.05-.27.06-.12.01-.27.02-.46.02s-.35,0-.48-.02c-.12-.02-.21-.05-.26-.1-.05-.05-.07-.12-.07-.21,0-.09.03-.21.08-.36l4.36-12.08c.03-.07.06-.13.11-.18.04-.05.11-.08.19-.11s.19-.05.32-.06c.13-.01.3-.01.5-.01.21,0,.39,0,.53.01s.26.03.34.06c.09.03.15.07.2.12.05.05.08.11.11.19l4.36,12.08ZM137.62,86.12h0l-2.24,6.48h4.52l-2.27-6.48Z"/>
        <path class="cls-7" d="M160.55,97.13c0,.05-.01.1-.04.14-.03.04-.08.07-.14.1-.07.02-.16.04-.26.06-.11.02-.25.02-.42.02-.16,0-.3,0-.41-.02-.12-.02-.2-.04-.27-.06-.07-.02-.11-.06-.14-.1-.03-.04-.04-.09-.04-.14v-11.32h-.02l-4.58,11.37s-.05.09-.09.12c-.04.03-.09.06-.16.09-.07.02-.15.04-.25.05-.1.01-.21.01-.35.01-.14,0-.26,0-.36-.02-.1-.01-.18-.03-.25-.06-.07-.02-.12-.05-.16-.08-.04-.03-.06-.07-.08-.11l-4.38-11.37h0v11.32c0,.05-.01.1-.04.14-.03.04-.08.07-.15.1-.07.02-.16.04-.27.06-.11.02-.25.02-.43.02-.16,0-.3,0-.41-.02-.11-.02-.2-.04-.26-.06-.07-.02-.11-.06-.14-.1-.02-.04-.04-.09-.04-.14v-11.96c0-.28.07-.48.22-.6.15-.12.32-.18.5-.18h1.06c.22,0,.41.02.57.06.16.04.31.1.43.19.12.09.22.2.3.33.08.13.16.29.22.47l3.72,9.41h.05l3.87-9.39c.08-.2.16-.37.25-.51.09-.14.19-.25.29-.34.11-.08.22-.14.35-.18.13-.04.28-.06.45-.06h1.11c.1,0,.2.02.29.05.09.03.17.08.24.14.06.06.12.14.16.24.04.1.06.22.06.36v11.96Z"/>
        <path class="cls-7" d="M166.77,97.13c0,.05-.01.1-.04.14-.03.04-.07.07-.14.1-.07.02-.16.04-.27.06-.11.02-.25.02-.42.02s-.3,0-.41-.02c-.11-.02-.2-.04-.27-.06-.07-.02-.11-.06-.14-.1-.03-.04-.04-.09-.04-.14v-12.48c0-.05.01-.1.05-.14.03-.04.08-.07.15-.1.07-.02.16-.04.27-.06.11-.02.24-.02.4-.02.17,0,.31,0,.42.02.11.02.2.04.27.06.07.02.11.06.14.1.03.04.04.09.04.14v12.48Z"/>
        <path class="cls-7" d="M179.94,95.55c0,.11,0,.2-.01.28,0,.08-.02.15-.03.21-.02.06-.04.11-.06.16-.03.05-.07.1-.14.17-.07.07-.21.17-.42.31-.22.14-.48.27-.8.4-.32.13-.68.24-1.09.33-.41.09-.86.14-1.35.14-.85,0-1.61-.14-2.29-.42-.68-.28-1.26-.7-1.74-1.25-.48-.55-.85-1.23-1.11-2.03-.26-.81-.39-1.74-.39-2.79s.14-2.04.42-2.88c.28-.85.67-1.56,1.17-2.15.5-.59,1.1-1.03,1.8-1.34.7-.31,1.48-.46,2.33-.46.38,0,.74.04,1.09.11.35.07.68.16.98.27.3.11.57.23.8.37.24.14.4.26.49.35.09.09.15.16.18.21.03.05.05.1.06.17.02.06.03.14.04.23.01.09.01.19.01.31,0,.13,0,.25-.02.34-.01.09-.03.17-.06.24-.03.06-.06.11-.1.14-.04.03-.08.05-.14.05-.09,0-.22-.07-.39-.2-.17-.13-.39-.27-.65-.43-.27-.16-.59-.3-.97-.43-.38-.13-.84-.2-1.37-.2-.58,0-1.11.12-1.58.35-.47.23-.88.57-1.22,1.02-.34.45-.6,1-.78,1.64-.19.65-.28,1.39-.28,2.22s.09,1.55.27,2.19c.18.63.43,1.16.77,1.59.33.43.74.75,1.23.96.48.22,1.03.33,1.65.33.52,0,.97-.06,1.36-.19.39-.13.72-.27.99-.43.27-.16.5-.3.67-.43.18-.13.31-.19.42-.19.05,0,.09,0,.12.03.03.02.06.06.08.12.02.06.03.14.04.24.01.1.01.23.01.38Z"/>
        <path class="cls-7" d="M195.68,96.64c0,.13,0,.25-.02.34-.01.09-.04.17-.06.23-.03.06-.07.11-.11.14-.04.03-.09.05-.15.05h-5.75c-.16,0-.3-.05-.44-.16-.14-.1-.21-.29-.21-.55v-12.04c0-.05.01-.1.04-.14.03-.04.07-.07.14-.1.07-.02.16-.04.27-.06.11-.02.25-.02.41-.02s.31,0,.42.02c.11.02.2.04.27.06.07.02.11.06.14.1.03.04.04.09.04.14v11.24h4.66c.06,0,.11.02.15.05.04.03.08.07.11.13.03.06.05.13.06.23.01.09.02.21.02.34Z"/>
        <path class="cls-7" d="M209.06,90.74c0,1.05-.12,2-.37,2.84-.25.84-.62,1.56-1.11,2.15-.49.59-1.11,1.05-1.85,1.37-.75.32-1.61.48-2.6.48s-1.82-.15-2.54-.44c-.71-.29-1.3-.71-1.77-1.27-.47-.56-.81-1.25-1.04-2.07-.23-.82-.34-1.77-.34-2.84s.12-1.96.37-2.79c.25-.84.62-1.55,1.12-2.14.5-.59,1.12-1.04,1.86-1.36.75-.32,1.61-.48,2.6-.48s1.79.14,2.5.43c.71.29,1.3.71,1.77,1.26.47.55.83,1.24,1.06,2.05.23.81.35,1.75.35,2.8ZM207.23,90.86c0-.74-.06-1.42-.19-2.06-.13-.63-.35-1.18-.65-1.65-.3-.47-.71-.83-1.22-1.09-.51-.26-1.14-.39-1.89-.39s-1.38.14-1.89.42c-.51.28-.92.66-1.24,1.13-.32.47-.54,1.02-.68,1.64-.14.63-.21,1.28-.21,1.97,0,.76.06,1.47.19,2.11.13.64.34,1.2.64,1.66.3.47.71.83,1.21,1.09.51.26,1.14.39,1.9.39s1.39-.14,1.91-.42c.52-.28.93-.66,1.24-1.14.32-.48.54-1.03.67-1.66.13-.63.2-1.3.2-2Z"/>
        <path class="cls-7" d="M222.59,86.16c0,.13,0,.24-.02.34-.01.1-.04.18-.06.24-.03.06-.06.11-.1.13-.04.03-.08.04-.13.04-.08,0-.22-.06-.4-.19-.19-.13-.44-.27-.75-.42-.31-.15-.69-.3-1.13-.42-.44-.13-.96-.19-1.56-.19-.72,0-1.36.13-1.93.39-.57.26-1.05.62-1.45,1.09-.39.46-.7,1.01-.91,1.65-.21.64-.32,1.33-.32,2.07,0,.83.11,1.57.35,2.21.23.64.55,1.19.96,1.63.41.44.9.78,1.46,1,.57.23,1.19.34,1.86.34.4,0,.81-.05,1.22-.15.41-.1.8-.24,1.15-.44v-3.79h-3.01c-.12,0-.2-.06-.26-.17-.06-.11-.09-.29-.09-.53,0-.13,0-.24.02-.33.01-.09.04-.16.06-.22.03-.06.07-.1.11-.12.04-.03.09-.04.15-.04h4.13c.07,0,.15.01.22.04.07.03.14.07.2.12.06.05.11.13.14.22.03.09.05.2.05.32v4.95c0,.17-.03.33-.09.45-.06.13-.19.24-.38.34-.19.1-.45.2-.75.32-.31.11-.63.21-.96.29-.33.08-.66.14-1,.18-.34.04-.67.06-1,.06-1,0-1.9-.16-2.69-.47-.79-.31-1.46-.76-2-1.33-.55-.58-.96-1.27-1.25-2.07-.29-.81-.43-1.7-.43-2.69s.16-1.97.47-2.8c.31-.84.75-1.55,1.32-2.14.57-.59,1.25-1.05,2.04-1.37.79-.32,1.67-.49,2.64-.49.5,0,.96.04,1.4.13.44.09.82.19,1.16.31.34.12.62.25.85.38.23.14.39.25.48.34.09.09.15.19.18.3.03.11.05.28.05.49Z"/>
        <path class="cls-7" d="M228.56,97.13c0,.05-.01.1-.04.14-.03.04-.07.07-.14.1-.07.02-.16.04-.27.06-.11.02-.25.02-.42.02s-.3,0-.41-.02c-.11-.02-.2-.04-.27-.06-.07-.02-.11-.06-.14-.1-.03-.04-.04-.09-.04-.14v-12.48c0-.05.01-.1.04-.14.03-.04.08-.07.15-.1.07-.02.16-.04.27-.06.11-.02.24-.02.4-.02.17,0,.31,0,.42.02.11.02.2.04.27.06.07.02.11.06.14.1.03.04.04.09.04.14v12.48Z"/>
        <path class="cls-7" d="M240.03,93.75c0,.61-.11,1.15-.34,1.63-.22.48-.54.88-.93,1.21-.4.33-.87.58-1.41.75-.54.17-1.12.25-1.74.25-.44,0-.84-.04-1.21-.11-.37-.07-.7-.16-.99-.27-.29-.11-.54-.22-.73-.33-.2-.11-.33-.21-.41-.29-.08-.08-.13-.18-.17-.31-.04-.12-.06-.29-.06-.5,0-.15,0-.27.02-.37.01-.1.03-.18.06-.24.03-.06.06-.1.1-.13.04-.02.09-.04.14-.04.09,0,.22.06.4.17.17.11.39.24.66.37s.59.26.97.38c.38.12.82.18,1.31.18.38,0,.72-.05,1.03-.15.31-.1.58-.24.8-.43s.4-.41.52-.68c.12-.27.18-.57.18-.91,0-.37-.08-.68-.25-.94-.17-.26-.39-.49-.66-.69-.27-.2-.59-.38-.94-.54-.35-.16-.71-.33-1.08-.5-.37-.17-.73-.36-1.07-.57-.35-.21-.66-.45-.93-.73-.27-.28-.5-.61-.67-.99-.17-.38-.25-.83-.25-1.36s.1-1.03.29-1.45c.2-.43.47-.78.83-1.07.35-.29.77-.51,1.26-.66.49-.15,1.01-.23,1.57-.23.29,0,.58.02.87.08.29.05.57.12.83.2.26.08.49.18.69.28.2.1.33.19.4.25.06.06.11.11.12.15.02.04.04.08.05.14.01.06.02.12.03.21,0,.08,0,.18,0,.31s0,.23-.02.32c-.01.09-.03.17-.05.24-.02.06-.05.11-.08.14-.04.03-.08.05-.13.05-.07,0-.19-.05-.35-.14-.16-.09-.35-.2-.58-.32-.23-.12-.5-.22-.81-.32-.31-.1-.66-.15-1.05-.15-.36,0-.68.05-.95.15-.27.1-.49.23-.66.39-.17.16-.3.35-.39.57-.09.22-.13.45-.13.7,0,.36.08.67.25.93.17.26.39.49.67.69.28.2.59.39.95.55.35.17.72.34,1.08.51.37.17.73.36,1.09.56.35.2.67.45.95.72.28.28.5.61.67.99.17.38.26.83.26,1.34Z"/>
        <path class="cls-7" d="M251.54,85.14c0,.13,0,.24-.02.33-.01.09-.03.17-.06.23-.03.06-.07.1-.11.12-.04.03-.09.04-.14.04h-3.66v11.27c0,.05-.01.1-.04.14-.03.04-.07.07-.14.1-.07.02-.16.04-.27.06-.11.02-.25.02-.42.02s-.3,0-.41-.02c-.11-.02-.2-.04-.27-.06-.07-.02-.11-.06-.14-.1-.03-.04-.04-.09-.04-.14v-11.27h-3.66c-.05,0-.1-.01-.15-.04-.04-.03-.08-.07-.11-.12-.03-.06-.05-.13-.07-.23-.02-.09-.03-.2-.03-.33s0-.24.03-.34c.02-.1.04-.18.07-.24.03-.06.06-.1.11-.13.04-.03.09-.04.15-.04h9.04c.05,0,.1.01.14.04.04.03.08.07.11.13.03.06.05.14.06.24.01.1.02.21.02.34Z"/>
        <path class="cls-7" d="M256.17,97.13c0,.05-.01.1-.04.14-.03.04-.07.07-.14.1-.07.02-.16.04-.27.06-.11.02-.25.02-.42.02s-.3,0-.41-.02c-.11-.02-.2-.04-.27-.06-.07-.02-.11-.06-.14-.1-.03-.04-.04-.09-.04-.14v-12.48c0-.05.01-.1.04-.14.03-.04.08-.07.15-.1.07-.02.16-.04.27-.06s.24-.02.4-.02c.17,0,.31,0,.42.02s.2.04.27.06c.07.02.11.06.14.1.03.04.04.09.04.14v12.48Z"/>
        <path class="cls-7" d="M269.34,95.55c0,.11,0,.2-.01.28,0,.08-.02.15-.04.21-.02.06-.04.11-.06.16-.03.05-.07.1-.14.17-.07.07-.21.17-.42.31-.21.14-.48.27-.8.4-.32.13-.68.24-1.09.33-.41.09-.86.14-1.35.14-.85,0-1.61-.14-2.29-.42-.68-.28-1.26-.7-1.74-1.25-.48-.55-.85-1.23-1.11-2.03-.26-.81-.39-1.74-.39-2.79s.14-2.04.42-2.88c.28-.85.67-1.56,1.17-2.15.5-.59,1.1-1.03,1.8-1.34.7-.31,1.48-.46,2.33-.46.37,0,.74.04,1.09.11.35.07.68.16.98.27.3.11.57.23.8.37.24.14.4.26.49.35s.15.16.18.21c.02.05.05.1.06.17.02.06.03.14.04.23.01.09.01.19.01.31,0,.13,0,.25-.02.34-.01.09-.03.17-.06.24-.03.06-.06.11-.1.14-.04.03-.08.05-.14.05-.1,0-.22-.07-.39-.2-.17-.13-.39-.27-.65-.43-.27-.16-.59-.3-.97-.43-.38-.13-.83-.2-1.37-.2-.58,0-1.11.12-1.58.35-.47.23-.88.57-1.22,1.02-.34.45-.6,1-.78,1.64-.19.65-.28,1.39-.28,2.22s.09,1.55.27,2.19c.18.63.43,1.16.77,1.59.34.43.74.75,1.23.96.49.22,1.03.33,1.65.33.52,0,.97-.06,1.36-.19.39-.13.72-.27.99-.43.27-.16.5-.3.67-.43.17-.13.31-.19.42-.19.05,0,.09,0,.12.03.03.02.06.06.08.12.02.06.04.14.05.24.01.1.01.23.01.38Z"/>
        <path class="cls-7" d="M279.64,93.75c0,.61-.11,1.15-.34,1.63-.22.48-.54.88-.93,1.21-.4.33-.87.58-1.41.75-.54.17-1.12.25-1.74.25-.44,0-.84-.04-1.21-.11-.37-.07-.7-.16-.99-.27-.29-.11-.54-.22-.73-.33-.2-.11-.33-.21-.41-.29-.08-.08-.13-.18-.17-.31-.04-.12-.06-.29-.06-.5,0-.15,0-.27.02-.37.01-.1.03-.18.06-.24.03-.06.06-.1.1-.13.04-.02.09-.04.14-.04.09,0,.22.06.4.17.17.11.39.24.66.37s.59.26.97.38c.38.12.82.18,1.31.18.38,0,.72-.05,1.03-.15.31-.1.58-.24.8-.43s.4-.41.52-.68c.12-.27.18-.57.18-.91,0-.37-.08-.68-.25-.94-.17-.26-.39-.49-.66-.69-.27-.2-.59-.38-.94-.54-.35-.16-.71-.33-1.08-.5-.37-.17-.73-.36-1.08-.57-.35-.21-.66-.45-.93-.73-.27-.28-.5-.61-.67-.99-.17-.38-.26-.83-.26-1.36s.1-1.03.3-1.45c.2-.43.47-.78.83-1.07.35-.29.77-.51,1.26-.66.49-.15,1.01-.23,1.57-.23.29,0,.58.02.87.08.29.05.57.12.83.2.26.08.49.18.69.28.2.1.34.19.4.25.06.06.11.11.13.15.02.04.04.08.05.14.01.06.02.12.03.21,0,.08.01.18.01.31s0,.23-.02.32c0,.09-.02.17-.04.24-.02.06-.05.11-.08.14-.04.03-.08.05-.13.05-.07,0-.19-.05-.35-.14s-.35-.2-.58-.32c-.23-.12-.5-.22-.81-.32-.31-.1-.66-.15-1.05-.15-.36,0-.68.05-.95.15-.27.1-.49.23-.66.39-.17.16-.3.35-.39.57-.09.22-.13.45-.13.7,0,.36.09.67.25.93.17.26.39.49.67.69.28.2.59.39.95.55.35.17.72.34,1.09.51.37.17.73.36,1.08.56.35.2.67.45.95.72.28.28.5.61.67.99.17.38.25.83.25,1.34Z"/>
      </g>
      <path class="cls-7" d="M289.61,15.55c0,3.71-2.99,6.7-6.68,6.7s-6.68-2.99-6.68-6.68,2.99-6.7,6.76-6.7,6.61,3.03,6.61,6.68ZM277.44,15.56c0,3.09,2.47,5.6,5.49,5.6s5.49-2.51,5.49-5.6-2.45-5.62-5.41-5.62c-3.11,0-5.56,2.47-5.56,5.62ZM282.33,11.74c1.41,0,1.95.08,2.51.37.73.39,1.16,1.14,1.16,2.03,0,.98-.48,1.74-1.39,2.14l1.85,3.19h-1.89l-1.62-2.92h-1.04v2.92h-1.62v-7.73h2.05ZM282.43,15.22c.75,0,.98-.02,1.27-.14.41-.14.66-.5.66-.97,0-.37-.17-.68-.48-.85-.33-.17-.52-.19-1.56-.19h-.41v2.14h.52Z"/>
    </g>
  </g>
</svg>