<svg xmlns="http://www.w3.org/2000/svg" xmlns:xlink="http://www.w3.org/1999/xlink" aria-hidden="true" role="img" class="iconify iconify--logos" width="35.93" height="32" preserveAspectRatio="xMidYMid meet" viewBox="0 0 256 228"><path fill="#00D8FF" d="M210.483 73.824a171.49 171.49 0 0 0-8.24-2.597c.465-1.9.893-3.777 1.273-5.621c6.238-30.281 2.16-54.676-11.769-62.708c-13.355-7.7-35.196.329-57.254 19.526a171.23 171.23 0 0 0-6.375 5.848a155.866 155.866 0 0 0-4.241-3.917C100.759 3.829 77.587-4.822 63.673 3.233C50.33 10.957 46.379 33.89 51.986 62.588a170.974 170.974 0 0 0 1.892 8.48c-3.28.932-6.445 1.924-9.474 2.98C17.309 83.498 0 98.307 0 113.668c0 15.865 18.582 31.778 46.812 41.427a145.52 145.52 0 0 0 6.921 2.165a167.467 167.467 0 0 0-2.01 9.138c-5.354 28.2-1.173 50.591 12.134 58.266c13.744 7.926 36.812-.22 59.273-19.855a145.567 145.567 0 0 0 5.342-4.923a168.064 168.064 0 0 0 6.92 6.314c21.758 18.722 43.246 26.282 56.54 18.586c13.731-7.949 18.194-32.003 12.4-61.268a145.016 145.016 0 0 0-1.535-6.842c1.62-.48 3.21-.974 4.76-1.488c29.348-9.723 48.443-25.443 48.443-41.52c0-15.417-17.868-30.326-45.517-39.844Zm-6.365 70.984c-1.4.463-2.836.91-4.3 1.345c-3.24-10.257-7.612-21.163-12.963-32.432c5.106-11 9.31-21.767 12.459-31.957a145.95 145.95 0 0 1 7.535 2.358c22.533 7.813 36.331 18.845 36.331 27.659c0 10.088-14.886 21.928-39.062 30.028v-.001Zm-10.404 20.634c1.132 5.305 1.897 10.349 2.261 15.07c1.123 14.588-1.298 26.055-7.484 29.63c-6.756 3.907-20.695-1.479-36.269-15.306a145.016 145.016 0 0 1-6.355-5.797c7.8-8.538 15.576-18.354 23.085-29.168c10.08-1.519 19.424-3.574 27.762-6.13v11.7Zm-85.08-27.057l-5.236 9.075l-5.236-9.075l-10.472-18.15l10.472-18.15l5.236-9.075l5.236 9.075l10.472 18.15l-10.472 18.15Zm-36.66-2.487c-3.837 6.642-7.502 12.781-10.94 18.35c-8.71-1.15-16.923-2.846-24.456-5.017C24.1 146.88 10.18 135.85 10.18 126.668c0-9.86 15.163-21.39 38.36-29.263c2.694-.913 5.5-1.77 8.394-2.574c3.236 10.036 7.502 20.63 12.66 31.51c-5.182 10.96-9.468 21.63-12.716 31.7v-.001Zm10.404-20.634c-1.132-5.305-1.897-10.349-2.261-15.07c-1.123-14.588 1.298-26.055 7.484-29.63c6.756-3.907 20.695 1.479 36.269 15.306a145.016 145.016 0 0 1 6.355 5.797c-7.8 8.538-15.576 18.354-23.085 29.168c-10.08 1.519-19.424 3.574-27.762 6.13v-11.7Zm85.08 27.057l5.236-9.075l5.236 9.075l10.472 18.15l-10.472 18.15l-5.236 9.075l-5.236-9.075l-10.472-18.15l10.472-18.15Zm36.66 2.487c3.837-6.642 7.502-12.781 10.94-18.35c8.71 1.15 16.923 2.846 24.456 5.017c12.478 4.397 26.398 15.427 26.398 24.609c0 9.86-15.163 21.39-38.36 29.263c-2.694.913-5.5 1.77-8.394 2.574c-3.236-10.036-7.502-20.63-12.66-31.51c5.182-10.96 9.468-21.63 12.716-31.7v.001ZM128 90.808c12.946 0 22.86 9.914 22.86 22.86c0 12.946-9.914 22.86-22.86 22.86c-12.946 0-22.86-9.914-22.86-22.86c0-12.946 9.914-22.86 22.86-22.86Z"></path></svg>
