<svg width="25" height="24" viewBox="0 0 25 24" fill="none" xmlns="http://www.w3.org/2000/svg">
<g clip-path="url(#clip0_150_1256)">
<path d="M12.5 6C13.6562 6 14.5833 5.1 14.5833 4C14.5833 3.62 14.4792 3.27 14.2812 2.97L12.5 0L10.7187 2.97C10.5208 3.27 10.4167 3.62 10.4167 4C10.4167 5.1 11.3542 6 12.5 6ZM17.2917 15.99L16.1771 14.92L15.0521 15.99C13.6979 17.29 11.3229 17.3 9.95833 15.99L8.84375 14.92L7.70833 15.99C7.03125 16.64 6.125 17 5.16667 17C4.40625 17 3.70833 16.77 3.125 16.39V21C3.125 21.55 3.59375 22 4.16667 22H20.8333C21.4062 22 21.875 21.55 21.875 21V16.39C21.2917 16.77 20.5938 17 19.8333 17C18.875 17 17.9687 16.64 17.2917 15.99V15.99ZM18.75 9H13.5417V7H11.4583V9H6.25C4.52083 9 3.125 10.34 3.125 12V13.54C3.125 14.62 4.04167 15.5 5.16667 15.5C5.70833 15.5 6.22917 15.3 6.60417 14.93L8.83333 12.8L11.0521 14.93C11.8229 15.67 13.1667 15.67 13.9375 14.93L16.1667 12.8L18.3854 14.93C18.7708 15.3 19.2813 15.5 19.8229 15.5C20.9479 15.5 21.8646 14.62 21.8646 13.54V12C21.875 10.34 20.4792 9 18.75 9Z" fill="#323232"/>
</g>
<defs>
<clipPath id="clip0_150_1256">
<rect width="25" height="24" fill="white"/>
</clipPath>
</defs>
</svg>
