<svg width="32" height="32" viewBox="0 0 32 32" fill="none" xmlns="http://www.w3.org/2000/svg">
<g clip-path="url(#clip0_150_1272)">
<path d="M16.0001 2.66675C8.64008 2.66675 2.66675 8.64008 2.66675 16.0001C2.66675 23.3601 8.64008 29.3334 16.0001 29.3334C23.3601 29.3334 29.3334 23.3601 29.3334 16.0001C29.3334 8.64008 23.3601 2.66675 16.0001 2.66675ZM17.8801 24.1201V26.6667H14.3201V24.0934C12.0401 23.6134 10.1067 22.1467 9.96008 19.5601H12.5734C12.7067 20.9601 13.6667 22.0534 16.1067 22.0534C18.7201 22.0534 19.3067 20.7467 19.3067 19.9334C19.3067 18.8267 18.7201 17.7867 15.7467 17.0801C12.4401 16.2801 10.1734 14.9201 10.1734 12.1867C10.1734 9.89341 12.0267 8.40008 14.3201 7.90675V5.33341H17.8801V7.93341C20.3601 8.53341 21.6001 10.4134 21.6801 12.4534H19.0667C19.0001 10.9734 18.2134 9.96008 16.1067 9.96008C14.1067 9.96008 12.9067 10.8667 12.9067 12.1467C12.9067 13.2667 13.7734 14.0001 16.4667 14.6934C19.1601 15.3867 22.0401 16.5467 22.0401 19.9067C22.0267 22.3467 20.2001 23.6801 17.8801 24.1201Z" fill="#323232"/>
</g>
<defs>
<clipPath id="clip0_150_1272">
<rect width="32" height="32" fill="white"/>
</clipPath>
</defs>
</svg>
