<svg width="17" height="16" viewBox="0 0 17 16" fill="none" xmlns="http://www.w3.org/2000/svg">
<path fill-rule="evenodd" clip-rule="evenodd" d="M7.00936 8.03257L7.00936 11.9435C7.00936 12.003 7.04941 12.0427 7.10949 12.0427L8.5714 12.0427C8.63147 12.0427 8.67153 12.003 8.67153 11.9435L8.67153 7.9664L9.73291 7.9664C9.78632 7.9664 9.83304 7.9267 9.83304 7.87376L9.93318 6.66939C9.93318 6.60984 9.89312 6.56351 9.83304 6.56351L8.67153 6.56351L8.67153 5.70987C8.67153 5.51135 8.83174 5.35253 9.032 5.35253L9.8464 5.35253C9.90647 5.35253 9.94653 5.31283 9.94653 5.25327L9.94653 4.04891C9.94653 3.98935 9.90647 3.94965 9.8464 3.94965L8.46459 3.94965C7.65019 3.94965 6.98933 4.59815 6.98933 5.41209L6.98933 6.56351L6.25504 6.56351C6.19496 6.56351 6.15491 6.60322 6.15491 6.66278L6.15491 7.86714C6.15491 7.9267 6.19496 7.9664 6.25504 7.9664L6.98933 7.9664L6.98933 8.03257L6.996 8.03257L7.00936 8.03257Z" fill="#A8A8A8"/>
<path d="M15.1064 7.99343C15.1064 11.8379 11.9489 14.9678 8.07055 14.9678C4.19214 14.9678 1.03469 11.8379 1.03469 7.99343C1.03469 4.14891 4.19214 1.01903 8.07055 1.01903C11.9489 1.01903 15.1064 4.14891 15.1064 7.99343ZM8.07055 -1.48531e-07C3.61806 -6.6587e-08 -4.46301e-09 3.58646 -9.9553e-09 8.00005C-1.54476e-08 12.4136 3.61806 16.0001 8.07055 16.0001C12.523 16.0001 16.1411 12.4136 16.1411 8.00005C16.1411 3.58646 12.523 -2.30474e-07 8.07055 -1.48531e-07Z" fill="#A8A8A8"/>
</svg>
