<svg width="17" height="16" viewBox="0 0 17 16" fill="none" xmlns="http://www.w3.org/2000/svg">
<path d="M11.412 9.63468C11.412 10.5677 10.6443 11.3221 9.70978 11.3221L6.40546 11.3221C5.46423 11.3221 4.70323 10.5744 4.70323 9.63468L4.70323 6.35907C4.70323 5.42602 5.45755 4.67164 6.40546 4.67164L9.70978 4.67164C10.651 4.67164 11.412 5.41941 11.412 6.35907L11.412 9.63468ZM12.2331 6.31937C12.2331 4.96281 11.125 3.86432 9.7565 3.86432L6.37208 3.86432C5.00363 3.86432 3.89551 4.96281 3.89551 6.31937L3.89551 9.67439C3.89551 11.031 5.00363 12.1294 6.37208 12.1294L9.7565 12.1294C11.125 12.1294 12.2331 11.031 12.2331 9.67439L12.2331 6.31937ZM9.41606 7.94063C9.41606 7.23257 8.8353 6.65024 8.11436 6.65024C7.39342 6.65024 6.81265 7.22595 6.81265 7.94063C6.81265 8.65531 7.39342 9.23102 8.11436 9.23102C8.8353 9.23102 9.41606 8.65531 9.41606 7.94063ZM10.1503 7.94063C10.1503 9.05235 9.24249 9.95232 8.12103 9.95232C6.99956 9.95232 6.09171 9.05235 6.09171 7.94063C6.09171 6.82891 6.99956 5.92894 8.12103 5.92894C9.24249 5.92894 10.1503 6.82891 10.1503 7.94063ZM10.7578 5.78336C10.7578 6.04806 10.5375 6.25981 10.2772 6.25981C10.0168 6.25981 9.79655 6.04144 9.79655 5.78336C9.79655 5.52528 10.0168 5.30691 10.2772 5.30691C10.5375 5.30691 10.7578 5.52528 10.7578 5.78336Z" fill="#A8A8A8"/>
<path d="M8.07054 14.9678C4.19214 14.9678 1.03469 11.8379 1.03469 7.99343C1.03469 4.14891 4.19214 1.01903 8.07054 1.01903C11.9489 1.01903 15.1064 4.14891 15.1064 7.99343C15.1064 11.8379 11.9489 14.9678 8.07054 14.9678ZM8.07054 -1.48531e-07C3.61806 -6.65869e-08 -4.46301e-09 3.58646 -9.9553e-09 8.00005C-1.54476e-08 12.4136 3.61806 16.0001 8.07054 16.0001C12.523 16.0001 16.1411 12.4136 16.1411 8.00005C16.1411 3.58646 12.523 -2.30474e-07 8.07054 -1.48531e-07Z" fill="#A8A8A8"/>
</svg>
