<svg width="17" height="16" viewBox="0 0 17 16" fill="none" xmlns="http://www.w3.org/2000/svg">
<path d="M6.99555 10.8596L8.53756 10.8596L8.53756 8.43099C8.53756 7.7891 8.66439 7.17369 9.46544 7.17369C10.2665 7.17369 10.2665 7.90822 10.2665 8.47731L10.2665 10.8662L11.8085 10.8662L11.8085 8.17291C11.8085 6.84944 11.5215 5.83036 9.95941 5.83036C9.21177 5.83036 8.70444 6.24064 8.50418 6.62444L8.48415 6.62444L8.48415 5.94947L7.00222 5.94947L7.00222 10.8596L6.99555 10.8596ZM5.25327 3.50104C5.74725 3.50104 6.14777 3.9047 6.14777 4.38777C6.14777 4.87084 5.74057 5.2745 5.25327 5.2745C4.76597 5.2745 4.35876 4.87084 4.35876 4.38777C4.35876 3.9047 4.76597 3.50104 5.25327 3.50104ZM4.47892 5.94285L6.02094 5.94285L6.02094 10.853L4.47892 10.853L4.47892 5.94285Z" fill="#A8A8A8"/>
<path d="M8.07055 14.9678C4.19215 14.9678 1.03469 11.8379 1.03469 7.99343C1.03469 4.14891 4.19215 1.01903 8.07055 1.01903C11.9489 1.01903 15.1064 4.14891 15.1064 7.99343C15.1064 11.8379 11.9489 14.9678 8.07055 14.9678ZM8.07055 -1.48531e-07C3.61806 -6.6587e-08 -4.46301e-09 3.58646 -9.9553e-09 8.00005C-1.54476e-08 12.4136 3.61806 16.0001 8.07055 16.0001C12.523 16.0001 16.1411 12.4136 16.1411 8.00005C16.1411 3.58646 12.523 -2.30474e-07 8.07055 -1.48531e-07Z" fill="#A8A8A8"/>
</svg>
