<svg width="24" height="24" viewBox="0 0 24 24" fill="none" xmlns="http://www.w3.org/2000/svg">
<g clip-path="url(#clip0_149_995)">
<path d="M13.9999 1.99994H5.99988C4.89988 1.99994 4.00988 2.89994 4.00988 3.99994L3.99988 19.9999C3.99988 21.0999 4.88988 21.9999 5.98988 21.9999H17.9999C19.0999 21.9999 19.9999 21.0999 19.9999 19.9999V7.99994L13.9999 1.99994ZM14.9999 11.9999H10.9999V12.9999H13.9999C14.5499 12.9999 14.9999 13.4499 14.9999 13.9999V16.9999C14.9999 17.5499 14.5499 17.9999 13.9999 17.9999H12.9999V18.9999H10.9999V17.9999H8.99988V15.9999H12.9999V14.9999H9.99988C9.44988 14.9999 8.99988 14.5499 8.99988 13.9999V10.9999C8.99988 10.4499 9.44988 9.99994 9.99988 9.99994H10.9999V8.99994H12.9999V9.99994H14.9999V11.9999ZM12.9999 7.99994V3.49994L17.4999 7.99994H12.9999Z" fill="#A8A8A8"/>
</g>
<defs>
<clipPath id="clip0_149_995">
<rect width="24" height="24" fill="white"/>
</clipPath>
</defs>
</svg>
