<svg width="25" height="24" viewBox="0 0 25 24" fill="none" xmlns="http://www.w3.org/2000/svg">
<path d="M8.90287 5.71191V13.8263C8.90287 15.5018 8.96675 15.9885 9.23825 16.5709C9.66146 17.5124 10.6836 18.063 12.0091 18.063C13.4544 18.063 14.5084 17.4167 14.8837 16.3236C15.0753 15.797 15.1153 15.3183 15.1153 13.8263V5.71191H17.2792V13.8661C17.2792 15.9406 17.1914 16.547 16.8401 17.3449C16.0815 18.9805 14.3008 19.9459 12.0171 19.9459C9.73332 19.9459 7.94466 18.9805 7.19407 17.3449C6.83474 16.531 6.75488 15.9406 6.75488 13.8661V5.71191H8.91884H8.90287Z" fill="#FF9E18"/>
<path d="M12.0096 24C5.38994 24 0 18.6144 0 12C0 5.38567 5.38994 0 12.0096 0C18.6292 0 24.0192 5.38567 24.0192 12C24.0192 18.6144 18.6292 24 12.0096 24ZM12.0096 1.91491C6.44398 1.91491 1.91643 6.43886 1.91643 12C1.91643 17.5612 6.44398 22.0851 12.0096 22.0851C17.5752 22.0851 22.1027 17.5612 22.1027 12C22.1027 6.43886 17.5752 1.91491 12.0096 1.91491Z" fill="#FF9E18"/>
</svg>
